# xmcd
#
# Track frame offsets: 
#        150
#        13425
#        27967
#        40400
#        56900
#        71745
#        83592
#        96040
#        109157
#        126950
#
# Disc length: 1862 seconds
#
# Revision: 2
# Processed by: cddbd v1.5.2PL0 Copyright (c) Steve Scherf et al.
# Submitted via: ExactAudioCopy v0.95b4
#
DISCID=8a07440a
DTITLE=Charlie Rich - Super Hits
DYEAR=1995
DGENRE=Country
TTITLE0=Behind Closed Doors
TTITLE1=On My Knees
TTITLE2=The Most Beautiful Girl
TTITLE3=Life's Little Ups And Downs
TTITLE4=A Woman Left Lonely
TTITLE5=Set Me Free
TTITLE6=A Very Special Love Song
TTITLE7=Spanish Eyes
TTITLE8=My Elusive Dreams
TTITLE9=Pieces Of My Life
EXTD=
EXTT0=
EXTT1=
EXTT2=
EXTT3=
EXTT4=
EXTT5=
EXTT6=
EXTT7=
EXTT8=
EXTT9=
PLAYORDER=
